<?xml version="1.0" encoding="UTF-8" standalone="no"?>
<svg
   role="img"
   aria-hidden="true"
   aria-label="ClassBot logo"
   viewBox="0 0 250 250"
   width="250"
   height="250"
   version="1.1"
   id="svg971"
   xmlns="http://www.w3.org/2000/svg"
   xmlns:svg="http://www.w3.org/2000/svg">
  <defs
     id="defs827">
    <linearGradient
       id="c"
       x1="296.565"
       x2="575.92102"
       y1="368.237"
       y2="652.17603"
       gradientTransform="matrix(0.39739113,0,0,0.39739113,-73.357882,-52.004648)"
       gradientUnits="userSpaceOnUse">
      <stop
         offset=".231"
         stop-color="#fff"
         stop-opacity="0"
         id="stop818" />
      <stop
         offset="1"
         stop-color="#fff"
         id="stop820" />
    </linearGradient>
    <linearGradient
       id="d"
       x1="124.94"
       x2="149.521"
       y1="555.03302"
       y2="555.03302"
       gradientTransform="matrix(0.59751177,0,0,0.59751177,-34.198965,-159.92321)"
       gradientUnits="userSpaceOnUse" />
    <clipPath
       id="b">
      <path
         d="m 370.546,440.135 c -28.437,9.049 -48.735,37.394 -49.8,71.862 -1.6,51.49 6.678,116.225 36.806,140.982 28.039,23.041 73.35,18.567 107.133,18.171 45.78,-0.536 96.094,-2.258 138.282,-22.3 61.856,-29.39 40.833,-126.114 16.733,-176.364 -15.951,-33.251 -41.934,-44.675 -79.437,-49.609 -55.507,-7.301 -128.61,4.179 -169.717,17.258 z"
         style="fill:none"
         id="path824" />
    </clipPath>
  </defs>
  <path
     fill="#00aad4"
     stroke-width="5.728"
     d="m 41.187273,147.45435 0.814326,0.10179 c -0.478415,17.5182 0.916116,31.51443 -1.282562,46.99681 -0.244299,0.28501 -7.613951,-0.32573 -8.265411,-0.682 -0.77361,-0.41734 -1.038263,-1.27238 -1.119699,-3.56268 -0.03053,-4.00038 0.651461,-8.44863 0.468238,-11.91969 -0.34609,-6.49426 -0.4377,-12.38794 -0.223934,-14.30161 a 189.53441,189.53441 0 0 0 0.447877,-4.7638 c 0.122158,-1.6083 0.488597,-4.2854 0.814329,-5.96494 a 62.8049,62.8049 0 0 0 0.834682,-5.69011 45.805842,45.805842 0 0 1 7.512158,-0.21376 z"
     style="stroke:#1a1a1a;stroke-width:1.98705;stroke-dasharray:none;stroke-opacity:1"
     id="path829" />
  <path
     fill="#00aad4"
     stroke-width="5.728"
     d="m 201.86399,189.14784 -0.81433,-0.0712 c -0.22393,-17.52838 -2.15796,-31.45335 -0.58021,-47.00698 0.22395,-0.29519 7.61396,0.0202 8.27558,0.34609 0.79399,0.39698 1.08918,1.24185 1.26221,3.52196 0.19333,3.9902 -0.30538,8.45882 0,11.92988 0.61075,6.47389 0.93649,12.35739 0.79398,14.28124 a 189.53441,189.53441 0 0 0 -0.2545,4.78417 67.884262,67.884262 0 0 1 -0.56999,5.97511 c -0.30537,1.90349 -0.49879,3.80698 -0.61075,5.73082 a 46.518377,46.518377 0 0 1 -7.51217,0.50895 z"
     style="stroke:#000000;stroke-width:1.98705;stroke-dasharray:none"
     id="path831" />
  <path
     d="M 176.95579,54.722963 208.10377,6.9830989 a 0.13704076,0.13704076 0 0 1 0.23412,0.1425079 L 179.92808,56.494124 Z M 145.01385,49.419665 139.8327,22.669053 a 0.20358151,0.20358151 0 0 1 0.3868,-0.09161 l 7.6852,25.854854 z"
     style="fill:#595959;stroke:#000000;stroke-width:0.397412;stroke-opacity:1"
     id="path833" />
  <path
     d="m 177.79333,55.699076 25.86976,-41.381527 0.15503,0.128757 -24.91007,41.935493 z"
     style="fill:#666666;stroke-width:0.397391"
     id="path835" />
  <path
     d="m 140.64702,25.814388 5.90387,23.350798 0.8754,-0.407163 -7.51216,-25.875209 a 0.20358151,0.20358151 0 0 0 -0.3868,0.101792 z"
     style="fill:#666666;stroke-width:0.397412"
     id="path837" />
  <path
     d="m 148.11846,48.22871 8.45882,29.407355 a 0.20358151,0.20358151 0 0 1 -0.2443,0.2443 l -5.98529,-1.587937 a 0.20358151,0.20358151 0 0 1 -0.14253,-0.16287 l -5.56794,-26.608104 z"
     style="fill:#595959;fill-opacity:1;stroke:#000000;stroke-width:0.397412;stroke-opacity:1"
     id="path839" />
  <path
     d="m 147.58915,48.432293 -0.98737,0.366449 7.60377,28.481056 1.48615,0.386805 a 0.20358151,0.20358151 0 0 0 0.2443,-0.254476 z"
     style="opacity:0.14;fill:#eaeaea;stroke-width:0.397412"
     id="path841" />
  <path
     d="m 180.23346,56.392332 -13.73158,24.195665 a 0.132328,0.132328 0 0 1 -0.17304,0.05087 l -4.91649,-2.453154 a 0.132328,0.132328 0 0 1 -0.0509,-0.203582 l 15.37041,-23.513667 z"
     style="fill:#595959;fill-opacity:1;stroke:#000000;stroke-width:0.397412;stroke-opacity:1"
     id="path843" />
  <path
     d="m 178.43233,55.404611 -14.03745,22.582546 1.70045,1.159586 13.25655,-23.237047 z"
     style="opacity:0.14;fill:#eaeaea;stroke-width:0.397391"
     id="path845" />
  <path
     d="m 108.08416,86.145771 c 0,0 22.61791,-22.760415 51.06842,-12.866351 15.68596,5.455987 21.61018,27.4835 21.61018,27.4835 z"
     style="fill:#00aad4;fill-opacity:1;stroke:#000000;stroke-width:1.98705;stroke-dasharray:none;stroke-opacity:1"
     id="path847" />
  <path
     d="m 102.83176,89.128245 c 0,0 24.83694,-21.528751 53.84731,-10.535348 19.1672,7.257682 27.82959,28.236763 27.82959,28.236763 z"
     style="fill:#0192b5;fill-opacity:1;stroke-width:0.397412"
     id="path849" />
  <path
     d="m 139.2016,242.68979 c -26.28238,1.25202 -80.699718,5.25239 -94.360038,-24.22621 -6.819983,-14.71892 -4.855419,-33.43826 -4.743448,-49.28709 0.101806,-13.87407 -2.066353,-29.90612 1.506501,-43.46465 8.010935,-30.364182 52.401884,-42.976059 79.722525,-43.953249 25.3459,-0.905939 44.00414,6.453536 61.60377,18.057679 16.85654,11.12573 19.69652,38.45655 19.78812,56.11725 0.11198,20.66353 2.51423,42.41622 -4.74344,62.41811 -7.45109,20.53119 -40.72649,23.48312 -58.77399,24.32797 z"
     style="fill:#162d50;fill-opacity:1;stroke:#1a1a1a;stroke-width:1.98705;stroke-dasharray:none;stroke-opacity:1"
     id="path851" />
  <path
     d="m 86.687743,238.76066 c -16.235627,-1.05863 -26.913476,-5.33384 -33.692742,-9.60905 20.490479,17.71162 63.680299,14.60697 86.206599,13.53816 11.45145,-0.53949 29.03072,-1.93402 42.26352,-8.1229 -20.9689,5.33386 -61.45109,6.36194 -94.767196,4.19379 z"
     style="fill:#162d50;fill-opacity:1;stroke:none;stroke-width:0.397412;stroke-opacity:1"
     id="path853" />
  <path
     d="m 106.90339,236.43985 c -14.983603,0 -32.135346,-0.60057 -41.540811,-3.44054 -11.78737,-3.56266 -15.736852,-6.89124 -19.543826,-15.07522 -5.537417,-11.95023 -5.160791,-26.4147 -4.784167,-40.41093 0.07124,-2.89086 0.142524,-5.61885 0.162849,-8.32648 0.03053,-3.89859 -0.111975,-7.86843 -0.264655,-12.07238 -0.396984,-10.56589 -1.252029,-21.61018 1.730444,-31.07673 11.532891,-36.542881 109.893306,-35.565686 135.076336,-20.40904 7.39001,4.43807 17.03977,8.55042 20.19528,20.236 2.25977,8.37738 3.43036,18.50556 3.5016,30.07917 0.0203,3.9393 0.12218,7.98039 0.22396,11.89934 0.43769,16.76494 0.89575,34.0999 -4.90632,50.06071 -2.9214,8.04147 -9.61923,13.45671 -20.45994,16.56135 -9.46654,2.70761 -59.28294,1.97475 -69.39076,1.97475 z"
     style="fill:#52b579;fill-opacity:1;stroke-width:0.397646"
     id="path855" />
  <path
     d="m 197.48699,215.79668 0.34609,-1.08917 0.18322,-0.61075 0.29519,-0.99755 0.18322,-0.65146 a 96.100658,96.100658 0 0 0 0.67182,-2.62621 l 0.14257,-0.64127 a 86.827522,86.827522 0 0 0 0.59037,-2.76872 l 0.0916,-0.49877 a 94.767196,94.767196 0 0 0 0.25448,-1.39455 c 0,-0.0814 0.0306,-0.16276 0.0408,-0.24427 0.1934,-1.11971 0.35627,-2.25976 0.50896,-3.39981 l 0.0202,-0.17309 0.18319,-1.51669 0.0408,-0.32572 0.14256,-1.37418 0.0408,-0.36645 0.12218,-1.34364 0.0306,-0.36645 0.10179,-1.38435 0.0306,-0.30537 0.10177,-1.48615 c 0,-0.0713 -0.0408,-0.14252 -0.0408,-0.21376 a 30.944393,30.944393 0 0 0 0.0408,-1.68973 c 0,-2.35137 0.12217,-4.57041 0.23412,-6.66729 0.0408,-5.29312 -0.0712,-10.58625 -0.20358,-15.81829 -0.10179,-3.90877 -0.20356,-7.96004 -0.22393,-11.89934 -0.061,-11.32931 -1.19095,-21.26409 -3.3591,-29.53968 0.16287,2.06635 0.53949,4.29557 0.71253,6.51461 0.74309,9.83299 1.18077,21.68143 -0.44786,40.95042 -1.49633,40.06484 -37.05185,54.21378 -69.93026,52.01508 0,0 -7.8379,-0.30535 -8.31631,0.88559 -0.4886,1.18076 -2.47351,-1.29276 -2.47351,-1.83224 -0.32574,2.19869 -5.27277,2.79924 -6.6673,0.81433 -1.93402,-1.99512 -3.44053,1.16039 -4.88595,1.26221 -1.45561,0.10162 -1.50651,-5.38474 -4.27522,-2.74837 -1.27238,1.21131 -5.160785,-2.44295 -9.110269,-0.34609 -5.374553,2.85016 -21.762865,0.96702 -26.363807,-0.60054 -6.372443,-2.15798 -18.913066,-4.29558 -21.641057,-27.08652 -2.045995,-17.17211 -1.934024,-24.93874 -3.328559,-32.3084 0.05087,1.77117 0.07124,3.52197 0.06108,5.26259 -0.02024,2.70764 -0.101792,5.43563 -0.173033,8.32649 -0.366446,13.99623 -0.753249,28.47087 4.784167,40.41092 3.796793,8.19416 7.756455,11.52272 19.513289,15.07522 2.850138,0.81431 5.740995,1.40473 8.67257,1.78134 0.641283,0.0713 1.292746,0.16277 1.954385,0.25448 l 0.570025,0.0713 0.498775,0.0508 0.590388,0.0713 0.539492,0.0508 0.97719,0.10162 0.508955,0.0508 0.620923,0.0508 0.519131,0.0407 1.017909,0.0915 0.549669,0.0407 0.651462,0.0508 0.529313,0.0306 0.936474,0.0713 0.681996,0.0407 a 1464.7589,1464.7589 0 0 0 2.860321,0.15285 l 0.610746,0.0306 0.610744,0.0306 0.610745,0.0306 0.875402,0.0306 0.732893,0.0306 0.712535,0.0306 0.580206,0.0211 0.834685,0.0211 0.631102,0.0211 0.916118,0.0211 0.508954,0.0105 0.855043,0.0211 0.407161,0.0105 1.190954,0.0306 h 0.437699 l 0.905936,0.0211 h 0.386888 l 1.22149,0.0211 h 0.33591 l 0.97719,0.0211 h 4.4788 c 10.09763,0 59.85296,0.74309 69.30932,-1.96456 l 0.91612,-0.26464 0.28501,-0.10184 0.61075,-0.183 0.31555,-0.10162 0.57002,-0.20367 0.31556,-0.10162 0.78379,-0.28501 0.37663,-0.14274 a 47.638075,47.638075 0 0 0 0.42751,-0.17288 l 0.4377,-0.17289 0.32573,-0.14273 0.46824,-0.19355 0.23412,-0.10162 c 0.59039,-0.25448 1.16041,-0.5293 1.72027,-0.81431 l 0.10177,-0.0407 0.57002,-0.30538 0.061,-0.0211 a 31.656926,31.656926 0 0 0 2.32083,-1.37416 c 2.54476,-1.8119 4.82488,-3.96984 6.77926,-6.41283 0.5802,-0.81431 1.10953,-1.67956 1.57775,-2.5855 l 0.0203,-0.0407 0.31555,-0.63107 0.061,-0.14274 0.26467,-0.55987 0.12217,-0.29517 a 11.410744,11.410744 0 0 0 0.44789,-1.15023 70.744579,70.744579 0 0 0 0.55984,-1.59814 l 0.17304,-0.51912 z"
     style="fill:#5bcb87;fill-opacity:1;stroke-width:0.397412"
     id="path857" />
  <path
     d="m 98.08831,216.03079 c -10.280869,0 -21.895193,-0.90596 -30.109709,-7.65467 -5.639207,-4.63146 -9.79227,-12.87653 -12.337041,-24.51121 -2.035813,-9.28332 -2.951931,-20.7246 -2.605841,-32.2066 a 34.018472,34.018472 0 0 1 5.975117,-18.52593 c 3.664467,-5.25239 8.652212,-8.98811 14.413571,-10.82035 11.319132,-3.60339 31.891043,-7.80735 52.656363,-7.80735 a 117.16117,117.16117 0 0 1 15.16682,0.91612 c 8.28577,1.08916 14.42375,2.91121 19.30971,5.741 5.57813,3.22676 9.80245,7.96003 12.92742,14.45428 7.63431,15.93026 12.81546,39.13855 7.17625,55.08916 -2.64656,7.48163 -7.43073,12.91726 -14.25071,16.14403 -16.53081,7.85824 -35.59622,8.71328 -55.30292,8.94741 -1.63882,0.0211 -3.32855,0.0611 -5.12007,0.10162 -2.55495,0.0713 -5.2015,0.14274 -7.89896,0.14274 z"
     style="fill:#727272;stroke-width:0.397412"
     id="path859" />
  <path
     d="m 98.30207,217.07921 c -10.738928,0 -22.902924,-0.95681 -31.748539,-8.22468 -6.097266,-5.00808 -10.545522,-13.74175 -13.212442,-25.94646 -2.086709,-9.4869 -3.033367,-21.15212 -2.666918,-32.8377 a 36.583599,36.583599 0 0 1 6.433178,-19.93063 30.476155,30.476155 0 0 1 15.757208,-11.79755 c 11.492177,-3.66446 32.369463,-7.91933 53.440153,-7.91933 a 119.79755,119.79755 0 0 1 15.50273,0.9263 c 8.63185,1.14006 15.07521,3.06391 20.26654,6.07692 6.03619,3.49142 10.6066,8.59114 13.94534,15.5638 7.8786,16.40867 13.1819,40.42112 7.28821,57.07408 -2.88067,8.14325 -8.11272,14.07766 -15.56381,17.6098 -16.99906,8.08219 -36.38001,8.95762 -56.39208,9.19171 -1.60829,0.0211 -3.26748,0.0713 -5.02846,0.10183 h -0.0407 c -2.57531,0.0609 -5.24223,0.11217 -7.970217,0.11217 z"
     style="opacity:0.71;fill:#5fd38d;fill-opacity:1;stroke-width:0.397412"
     id="path861" />
  <path
     d="m 98.495471,216.03079 c -10.382656,0 -22.108953,-0.91612 -30.384541,-7.71573 -5.690101,-4.6824 -9.873704,-12.99869 -12.449009,-24.73517 -2.045995,-9.36475 -2.982473,-20.90782 -2.626202,-32.49161 a 34.313667,34.313667 0 0 1 6.026013,-18.68878 c 3.695004,-5.29312 8.733645,-9.05938 14.5459,-10.91197 11.410742,-3.63393 32.165878,-7.87861 53.124598,-7.87861 a 118.22997,118.22997 0 0 1 15.28897,0.91611 c 8.3672,1.10953 14.55608,2.95194 19.49293,5.80208 5.61885,3.25731 9.8737,8.02111 13.02922,14.57644 7.70556,16.07276 12.92742,39.49482 7.23732,55.57775 -2.66691,7.55288 -7.50198,13.02922 -14.3525,16.28652 -16.69368,7.92952 -35.92196,8.79473 -55.81187,9.02886 -1.64901,0.0211 -3.35909,0.0611 -5.15061,0.10162 a 288.47501,288.47501 0 0 1 -7.980398,0.14274 z"
     style="fill:#00aad4;fill-opacity:1;stroke-width:0.397412"
     id="path863" />
  <ellipse
     cx="140.50452"
     cy="22.943886"
     rx="5.5883131"
     ry="5.3745522"
     style="fill:#d34444;fill-opacity:1;stroke:#000000;stroke-width:0.79482;stroke-dasharray:none;stroke-opacity:1"
     id="ellipse865" />
  <path
     d="m 145.45155,21.417026 a 5.4050895,5.1709707 0 0 0 -5.07936,-3.257306 5.5272382,5.2931197 0 0 0 -3.28784,1.017909 4.2243165,4.0512725 0 0 0 -0.7329,2.269934 4.55005,4.3566475 0 0 0 9.1001,0 z"
     style="fill:#d94a44;fill-opacity:1;stroke-width:0.376643"
     id="path867" />
  <ellipse
     cx="206.21043"
     cy="10.423622"
     rx="4.947031"
     ry="5.1200757"
     style="fill:#d34444;fill-opacity:1;stroke:#000000;stroke-width:0.79482;stroke-dasharray:none;stroke-opacity:1"
     id="ellipse869" />
  <path
     d="m 206.21045,5.720893 a 4.5093309,4.6620168 0 0 0 -4.07162,2.7585295 4.5805842,4.7332706 0 0 0 4.49915,4.4380745 4.5093309,4.6620168 0 0 0 4.07161,-2.758528 4.5805842,4.7332706 0 0 0 -4.49914,-4.438076 z"
     style="fill:#d94a44;fill-opacity:1;stroke-width:0.369521"
     id="path871" />
  <g
     transform="matrix(0.59751175,0,0,0.59751175,-38.769373,-161.35847)"
     id="g885">
    <circle
       cx="266.996"
       cy="645.14001"
       r="9.2959995"
       style="fill:#d94a44;fill-opacity:1;stroke-width:0.665123"
       id="circle873" />
    <circle
       cx="266.996"
       cy="645.25897"
       r="9.177"
       style="fill:#424242;stroke-width:0.665123"
       id="circle875" />
    <path
       d="m 267.048,654.26 a 9.212,9.212 0 0 1 -6.886,-15.335 9.236,9.236 0 1 0 14.928,10.612 9.21,9.21 0 0 1 -8.042,4.722 z"
       style="fill:#ce3a3a;fill-opacity:1;stroke-width:0.665123"
       id="path877" />
    <circle
       cx="266.936"
       cy="645.20001"
       r="8.427"
       style="fill:#d94a44;fill-opacity:1;stroke-width:0.665123"
       id="circle879" />
    <circle
       cx="266.936"
       cy="645.20001"
       r="7.0780001"
       style="fill:#666666;stroke-width:0.665123"
       id="circle881" />
    <circle
       cx="266.936"
       cy="645.20001"
       r="6.448"
       style="fill:#d94a44;fill-opacity:1;stroke-width:0.665123"
       id="circle883" />
  </g>
  <path
     fill="#00aad4"
     d="m 74.289629,188.27244 h 4.865596 v 13.05975 h -4.865596 z m 7.736099,1.24185 h 4.855416 v 13.04958 h -4.855416 z m 7.807348,0.23412 h 4.8656 v 13.04957 h -4.8656 z m 7.736098,0.13234 h 4.855426 v 13.04958 h -4.845245 z m 7.776816,-0.10179 h 4.8656 v 13.05976 h -4.8656 z m 7.7361,0.13234 h 4.85541 v 13.04958 h -4.85541 z m 7.81752,0.23412 h 4.85543 v 13.04957 h -4.85543 z m 7.7361,0.13234 h 4.84524 v 13.04959 h -4.85541 z m 7.9804,-0.0712 h 4.85542 v 13.05977 h -4.85542 z m 7.7361,0.13234 h 4.85542 v 13.05975 h -4.8656 z m 7.80735,0.23412 h 4.85542 v 13.05976 h -4.85542 z m 7.7361,-0.97719 h 4.8656 v 13.05975 h -4.8656 z"
     style="stroke-width:1.83162"
     id="path887" />
  <g
     clip-path="url(#b)"
     style="fill:#1a1a1a"
     transform="matrix(0.39739113,0,0,0.39739113,-73.357881,-52.004646)"
     id="g903">
    <path
       d="M 315.535,405.023 H 365.4 v 288.308 h -49.865 z"
       style="fill:#1a1a1a"
       id="path889" />
    <path
       d="m 364.543,405.023 h 49.865 v 288.308 h -49.865 z"
       style="fill:#1a1a1a"
       id="path891" />
    <path
       d="m 413.552,405.023 h 49.865 v 288.308 h -49.865 z"
       style="fill:#1a1a1a"
       id="path893" />
    <path
       d="m 462.56,405.023 h 49.865 V 693.331 H 462.56 Z"
       style="fill:#1a1a1a"
       id="path895" />
    <path
       d="m 511.568,405.023 h 49.865 v 288.308 h -49.865 z"
       style="fill:#1a1a1a"
       id="path897" />
    <path
       d="m 560.577,405.023 h 49.865 v 288.308 h -49.865 z"
       style="fill:#1a1a1a"
       id="path899" />
    <path
       d="M 609.585,405.023 H 659.45 V 693.331 H 609.585 Z"
       style="fill:#1a1a1a"
       id="path901" />
  </g>
  <path
     d="m 102.15994,213.0076 c -8.95759,0 -19.055231,-0.75325 -25.926109,-6.41283 -10.250329,-8.41809 -13.293871,-31.29047 -12.723844,-49.87746 0.366447,-11.52272 7.125353,-21.33535 16.815834,-24.42979 11.01376,-3.5016 29.987559,-7.03373 47.556639,-7.03373 a 104.97681,104.97681 0 0 1 13.56871,0.81432 c 12.37776,1.62865 21.78322,5.15061 27.48351,17.00924 a 93.535534,93.535534 0 0 1 7.4918,23.66635 c 1.65919,9.70066 1.32328,18.2918 -1.00773,24.84712 -2.17832,6.15835 -6.10745,10.61678 -11.65504,13.26334 -14.69859,6.97268 -31.88087,7.73609 -49.67389,7.93968 -1.52687,0.0306 -3.09445,0.0508 -4.74345,0.10183 -2.34119,0.0609 -4.75363,0.10183 -7.19661,0.10183 z"
     style="opacity:0.270758;fill:url(#c);stroke-width:0.397412"
     id="path905" />
  <path
     d="m 58.837791,155.77066 c 0.427521,-13.70105 8.48935,-24.95911 19.798303,-28.56249 16.337416,-5.19133 45.388496,-9.75156 67.446556,-6.85052 8.71329,1.14006 15.859,3.17587 21.55928,7.29839 -6.29067,-7.12534 -14.96324,-10.118 -26.29255,-11.60414 -22.05806,-2.90104 -51.109139,1.65919 -67.446556,6.86069 -11.298775,3.59322 -19.370783,14.86146 -19.788123,28.56249 -0.641283,20.45995 2.646558,46.18246 14.627329,56.02565 q 0.834684,0.69215 1.730444,1.29274 C 60.944859,197.3929 58.257583,174.40854 58.837791,155.77066 Z"
     style="fill:#000000;stroke-width:0.397412"
     id="path907" />
  <path
     d="m 73.902824,122.91259 c -11.298775,3.59322 -19.370783,14.86146 -19.788123,28.56249 -0.641283,20.45995 2.646558,46.18246 14.627329,56.02565 11.135911,9.16116 29.142697,7.37981 42.56889,7.22714 18.20019,-0.22395 38.1919,-0.90594 54.96702,-8.86598 24.57229,-11.68558 16.21526,-50.12178 6.63675,-70.09312 -6.33138,-13.21244 -16.66314,-17.75231 -31.55513,-19.71687 -22.06824,-2.90104 -51.119319,1.65919 -67.456736,6.86069 z"
     style="fill:none;stroke-width:0.397412"
     id="path909" />
  <path
     d="m 197.93486,125.86453 c -3.15551,-11.68558 -12.78492,-15.79793 -20.16475,-20.236 -20.63299,-12.438839 -90.451265,-15.319515 -121.23279,4.21413 -6.738548,4.27521 -11.604146,9.62941 -13.680678,16.19491 -0.987372,3.15552 -2.54477,14.70877 -2.137605,24.18549 0.407163,-8.96777 7.949856,-25.61056 11.756832,-29.27502 8.346842,-8.04148 28.491233,-15.84883 59.160791,-17.83375 19.1672,-1.23167 39.37267,-0.89576 54.6311,2.89086 15.24825,3.78661 26.23147,10.82036 30.76117,19.99171 1.14006,2.30046 1.44542,4.38718 2.29028,5.92422 q -0.61073,-3.15552 -1.38435,-6.05655 z"
     style="fill:#5bcb87;fill-opacity:1;stroke-width:0.397412"
     id="path911" />
  <ellipse
     cx="140.55385"
     cy="23.284073"
     rx="2.0052779"
     ry="1.2825636"
     style="opacity:0.5;fill:#ffffff;stroke-width:0.397412"
     transform="rotate(-1.385)"
     id="ellipse913" />
  <ellipse
     cx="22.980452"
     cy="205.67397"
     rx="1.1298774"
     ry="2.0052779"
     style="opacity:0.5;fill:#ffffff;stroke-width:0.397412"
     transform="rotate(-81.643)"
     id="ellipse915" />
  <path
     d="M 45.9409,115.60402 C 51.081334,108.47867 64.263241,97.566695 84.784256,91.062265 113.08209,82.0945 133.31809,81.809486 152.72959,85.402701 a 99.113665,99.113665 0 0 0 -31.40245,-3.64411 C 97.263804,82.623811 59.957489,92.507695 45.9409,115.60402 Z"
     style="fill:#162d50;fill-opacity:1;stroke-width:0.397412"
     id="path917" />
  <g
     transform="matrix(0.59751175,0,0,0.59751175,-34.19897,-155.14922)"
     id="g923">
    <circle
       cx="204.912"
       cy="544.08099"
       r="19.080999"
       style="opacity:1;fill:#ffffff;fill-opacity:1;stroke-width:0.763222"
       id="circle919" />
    <circle
       cx="308.32001"
       cy="544.08099"
       r="19.080999"
       style="opacity:1;fill:#ffffff;fill-opacity:1;stroke-width:0.763222"
       id="circle921" />
  </g>
  <path
     d="m 42.08303,168.39271 c 0.16287,-0.10179 0.376628,-0.25448 0.661641,-0.15269 0.305372,0.10179 0.386805,0.18322 0.47842,0.37663 a 1.068803,1.068803 0 0 1 0.03053,0.77361 c -0.692179,1.71008 -2.076533,-0.3461 -1.160417,-0.99756 z m 4.702736,-0.73289 c 0.152687,-0.1018 0.366444,-0.2443 0.661637,-0.14253 0.305374,0.10179 0.386807,0.18324 0.478419,0.37662 0.101792,0.22394 0.101792,0.51914 0.02024,0.76343 -0.692177,1.72027 -2.066352,-0.33591 -1.160415,-0.99754 z m 4.539868,-0.75325 c 0.152687,-0.1018 0.376623,-0.25448 0.661641,-0.15269 0.30537,0.10179 0.386803,0.18321 0.478413,0.37663 a 1.1196984,1.1196984 0 0 1 0.02024,0.7736 c -0.692073,1.71009 -2.06625,-0.34608 -1.160311,-0.99754 z m -8.998305,8.85579 c 0.152687,-0.10179 0.376626,-0.25447 0.661642,-0.15269 0.305371,0.10179 0.386802,0.18322 0.478415,0.37663 a 1.0179076,1.0179076 0 0 1 0.02024,0.77361 c -0.681882,1.71008 -2.066238,-0.3461 -1.160297,-0.99755 z m 4.702734,-0.73289 c 0.152666,-0.1018 0.366447,-0.2443 0.661639,-0.14253 0.305374,0.10179 0.376628,0.18324 0.46824,0.37662 a 1.0382657,1.0382657 0 0 1 0.03053,0.76343 c -0.692176,1.72027 -2.07653,-0.3359 -1.160414,-0.99754 z m 4.539868,-0.75325 c 0.152687,-0.1018 0.366446,-0.25448 0.661639,-0.15269 0.305374,0.10179 0.376628,0.18324 0.46824,0.37663 a 1.0586239,1.0586239 0 0 1 0.03053,0.77361 c -0.692177,1.71008 -2.066353,-0.34609 -1.160417,-0.99755 z"
     style="stroke-width:2.68524"
     id="path925" />
  <path
     d="m 184.81403,170.85604 c 0.17303,-0.0712 0.41735,-0.20358 0.71255,-0.0509 0.29518,0.14252 0.36644,0.23412 0.44787,0.4377 a 0.9771913,0.9771913 0 0 1 -0.0712,0.76343 c -0.90595,1.6083 -2.10708,-0.62093 -1.08917,-1.15024 z m 4.95722,-0.0712 c 0.17303,-0.0713 0.41734,-0.20358 0.71252,-0.0509 0.2952,0.14252 0.36646,0.23412 0.44789,0.4377 a 0.9771913,0.9771913 0 0 1 -0.0712,0.76343 c -0.90593,1.60829 -2.10706,-0.62092 -1.08915,-1.15024 z m 4.79434,-0.12216 c 0.17303,-0.0712 0.41734,-0.20358 0.71253,-0.0509 0.30538,0.14252 0.37663,0.23411 0.44789,0.4377 a 0.96701227,0.96701227 0 0 1 -0.061,0.76343 c -0.91611,1.60828 -2.10706,-0.62094 -1.09933,-1.15026 z m 5.23204,-0.16284 c 0.17305,-0.0814 0.40717,-0.20359 0.70237,-0.0611 0.30536,0.14252 0.37662,0.23412 0.44787,0.43769 a 0.9771913,0.9771913 0 0 1 -0.061,0.77362 c -0.91611,1.59811 -2.10706,-0.6311 -1.08915,-1.15023 z m -15.00395,-5.44582 c 0.16287,-0.0713 0.40717,-0.20358 0.70235,-0.0509 0.30537,0.14252 0.37662,0.23412 0.44788,0.4377 a 0.96701227,0.96701227 0 0 1 -0.061,0.76343 c -0.91613,1.60829 -2.10707,-0.62093 -1.08917,-1.15024 z m 4.95721,-0.0611 c 0.16287,-0.0814 0.40715,-0.20358 0.70235,-0.0611 0.30538,0.14253 0.37664,0.2443 0.44788,0.43771 a 0.98737039,0.98737039 0 0 1 -0.061,0.77361 c -0.91612,1.59811 -2.10708,-0.63111 -1.08917,-1.15023 z m 4.78417,-0.13234 c 0.17303,-0.0712 0.42751,-0.1934 0.71253,-0.0509 0.30537,0.14252 0.37662,0.23412 0.44788,0.4377 a 0.9771913,0.9771913 0 0 1 -0.061,0.7736 c -0.91613,1.59812 -2.10708,-0.6311 -1.08917,-1.15023 z m 5.23203,-0.16285 c 0.17304,-0.0713 0.41735,-0.20358 0.71254,-0.0509 0.29519,0.14252 0.36645,0.23412 0.44788,0.4377 a 0.98737039,0.98737039 0 0 1 -0.0712,0.76343 c -0.91611,1.6083 -2.10706,-0.62092 -1.08915,-1.15023 z"
     style="stroke-width:2.74556"
     id="path927" />
  <g
     transform="matrix(0.59751175,0,0,0.59751175,-70.385589,-160.49326)"
     id="g963">
    <circle
       cx="250.48599"
       cy="643.42902"
       r="6.2280002"
       style="fill:#919191;stroke-width:0.665123"
       id="circle929" />
    <circle
       cx="250.45599"
       cy="643.45898"
       r="6.1069999"
       style="fill:#424242;stroke-width:0.665123"
       id="circle931" />
    <circle
       cx="250.396"
       cy="643.51898"
       r="5.6869998"
       style="fill:#0192b5;fill-opacity:1;stroke-width:0.665123"
       id="circle933" />
    <circle
       cx="250.396"
       cy="643.51898"
       r="2.7490001"
       style="fill:#00aad4;fill-opacity:1;stroke-width:0.665123"
       id="circle935" />
    <g
       transform="translate(0.211,0.106)"
       id="g961">
      <circle
         cx="295.98199"
         cy="643.32397"
         r="6.2280002"
         style="fill:#919191;stroke-width:0.665123"
         id="circle937" />
      <circle
         cx="295.952"
         cy="643.35303"
         r="6.1069999"
         style="fill:#424242;stroke-width:0.665123"
         id="circle939" />
      <circle
         cx="295.892"
         cy="643.41302"
         r="5.6869998"
         style="fill:#0192b5;fill-opacity:1;stroke-width:0.665123"
         id="circle941" />
      <circle
         cx="295.892"
         cy="643.41302"
         r="2.7490001"
         style="fill:#00aad4;fill-opacity:1;stroke-width:0.665123"
         id="circle943" />
      <circle
         cx="280.509"
         cy="643.32397"
         r="6.2280002"
         style="fill:#919191;stroke-width:0.665123"
         id="circle945" />
      <circle
         cx="280.478"
         cy="643.35303"
         r="6.1069999"
         style="fill:#424242;stroke-width:0.665123"
         id="circle947" />
      <circle
         cx="280.418"
         cy="643.41302"
         r="5.6869998"
         style="fill:#0192b5;fill-opacity:1;stroke-width:0.665123"
         id="circle949" />
      <circle
         cx="280.418"
         cy="643.41302"
         r="2.7490001"
         style="fill:#00aad4;fill-opacity:1;stroke-width:0.665123"
         id="circle951" />
      <circle
         cx="265.39499"
         cy="643.32397"
         r="6.2280002"
         style="fill:#919191;stroke-width:0.665123"
         id="circle953" />
      <circle
         cx="265.36499"
         cy="643.35303"
         r="6.1069999"
         style="fill:#424242;stroke-width:0.665123"
         id="circle955" />
      <circle
         cx="265.30499"
         cy="643.41302"
         r="5.6869998"
         style="fill:#0192b5;fill-opacity:1;stroke-width:0.665123"
         id="circle957" />
      <circle
         cx="265.30499"
         cy="643.41302"
         r="2.7490001"
         style="fill:#00aad4;fill-opacity:1;stroke-width:0.665123"
         id="circle959" />
    </g>
  </g>
  <path
     d="m 40.576527,173.26849 14.44411,-3.12498"
     style="fill:#ffffff;stroke:url(#d);stroke-width:1.18384"
     id="path965" />
  <path
     d="m 202.48491,168.3011 -21.00961,0.44787"
     style="fill:#ff0000;fill-opacity:1;stroke:#1a1a1a;stroke-width:1.195;stroke-opacity:1"
     id="path967" />
  <ellipse
     cx="72.075737"
     cy="193.58632"
     rx="5.8937058"
     ry="8.0516262"
     style="opacity:0.469314;fill:#ffffff;stroke-width:0.297162"
     transform="matrix(0.91162695,-0.41101862,0.46490132,0.8853625,0,0)"
     id="ellipse969" />
</svg>
