<?xml version="1.0" encoding="UTF-8"?>
<svg version="1.1" viewBox="0 0 125 125" xmlns="http://www.w3.org/2000/svg">
    <defs>
        <linearGradient id="c" x1="106.55" x2="112.37" y1="82.724" y2="82.724" gradientUnits="userSpaceOnUse">
            <stop offset="0"/>
            <stop stop-opacity="0" offset="1"/>
        </linearGradient>
        <linearGradient id="b" x1="114.53" x2="120.25" y1="82.767" y2="82.767" gradientUnits="userSpaceOnUse">
            <stop offset="0"/>
            <stop stop-opacity="0" offset="1"/>
        </linearGradient>
        <linearGradient id="a" x1="122.43" x2="128.15" y1="82.897" y2="82.897" gradientUnits="userSpaceOnUse">
            <stop offset="0"/>
            <stop stop-opacity="0" offset="1"/>
        </linearGradient>
        <linearGradient id="d" x1="83.632" x2="88.222" y1="20.711" y2="20.711" gradientUnits="userSpaceOnUse">
            <stop offset="0"/>
            <stop stop-opacity="0" offset="1"/>
        </linearGradient>
    </defs>
    <g transform="matrix(1.4352 0 0 1.4352 -81.77 -17.884)">
        <path d="m83.978 24.462c-0.17285-0.05467-0.36537-0.33399-0.30033-1.1578 0.09672-1.2253 0.2749-2.2759 0.89136-3.5262 0.44351-0.89951 0.77826-1.14 1.7163-1.8792l1.0914-1.0002 0.28568 0.32953c0.26257 0.30287 0.66042 0.71478 0.48351 0.79635-0.21162 0.09754-1.6727 1.3968-2.3277 2.5929-0.45124 0.82402-0.32516 1.5566-0.6162 2.9457l-0.0083 0.92616-0.58942 0.04849c-0.23906-0.0079-0.52106-0.0422-0.62666-0.07554z"
              fill="#666" stroke="url(#d)" stroke-width=".165"/>
        <g stroke="#000">
            <path d="m79.149 27.396c-0.10064-0.19282 0.12963-2.9663 0.16062-3.3805 2.0464 0.06142 3.969 0.09579 5.9534 0.22969 0.44216 0.03225 4.6598 0.03341 4.9005 0.31843 0.07779 0.09222 0.12507 0.62862 0.13054 1.4824l0.0083 1.338-4.3934 5.51e-4c-2.4163 3.05e-4 -4.9088 0.03576-5.5388 0.07868-0.39577 0.03461-0.90071 0.03331-1.2211-0.0673z"
                  fill="#00aad4" stroke-width="1.0609"/>
            <path d="m75.441 31.478c-0.02811-0.16105-0.07333-0.93928-0.1005-1.7294-0.04327-1.258-0.02786-1.4502 0.12397-1.5465 0.26326-0.16684 2.62-0.47415 4.8138-0.6277 1.7122-0.11984 5.3891-0.10706 10.932 0.03814 1.0909 0.02849 1.1354 0.04042 1.2624 0.33504 0.0841 0.19516 0.13218 0.81906 0.13315 1.7281l0.0018 1.4227-1.5734 0.07401c-0.86539 0.04074-3.4538 0.09936-5.7521 0.13044-3.8412 0.05179-5.953 0.14344-8.7384 0.37901l-1.0518 0.08898z"
                  fill="#00aad4" stroke-width="1.0609"/>
            <path d="m74.137 89.173c0.06916-0.04662 1.9783-0.08606 4.2426-0.08751 2.2642-2e-3 4.8672-0.0507 5.7844-0.10938 2.9313-0.18757 31.197-0.11472 36.165 0.09325 3.9256 0.16428 8.947 0.60705 9.6174 0.84801-14.508 11.214-48.022 9.033-55.81-0.74437z"
                  fill="#162d50" stroke-width="1.0044"/>
            <path d="m136.02 69.19-0.37655-0.04746c0.23101-8.1654-0.40751-14.692 0.62241-21.903 0.11126-0.13175 3.547 0.15406 3.8496 0.32025 0.36019 0.19778 0.48415 0.59613 0.51783 1.6642 0.0154 1.8624-0.30392 3.9345-0.22114 5.5547 0.15759 3.0241 0.19693 5.7725 0.0953 6.6633-0.0541 0.47514-0.1484 1.4748-0.20938 2.2215-0.0609 0.74665-0.23176 1.9962-0.37948 2.7768-0.17488 0.87916-0.3022 1.763-0.39512 2.6534-1.1632 0.14645-2.3435 0.14223-3.5033 0.09622z"
                  fill="#00aad4" stroke-width="1.0609"/>
            <path d="m61.741 70.821c-0.30886-0.42899-0.62367-5.4614-0.63228-10.107 0.0081-2.341-0.15119-5.0329-0.0707-7.0571l0.10268-2.516c1.1521-0.30035 2.384-0.24099 3.5461-0.14386 1.3007 6.3709 1.1396 13.441 0.97893 20.04-1.8791-0.03767-1.2858 0.07903-3.9247-0.21618z"
                  fill="#00aad4" stroke-width="1.2341"/>
            <path d="m133.89 91.23c-2.6246-0.62174-4.5086-0.89878-8.859-1.3028-3.8336-0.35603-9.1394-0.45556-24.492-0.45946-17.42-0.0044-24.193 0.07846-29.339 0.35922-1.9776 0.10782-3.9237 0.20245-4.3245 0.21015l-0.72883 0.01398-0.07273-0.67878c-0.11097-1.0358-0.38672-6.2206-0.45618-8.5773-0.03401-1.1539-0.12649-2.5146-0.20552-3.0236-0.24631-1.5867-0.51931-9.8219-0.62595-18.882-0.03156-2.6812-0.10013-5.2914-0.15239-5.8005-0.05225-0.50909-0.09703-3.5636-0.09949-6.7878-0.0024-3.2242-0.05654-7.6046-0.12016-9.7341-0.08773-2.9364-0.0864-3.8934 0.0055-3.9606 0.06666-0.04876 1.2794-0.12346 2.6951-0.16597 2.8574-0.08582 7.3546-0.38654 8.8794-0.59381 1.8545-0.25207 4.3194-0.34304 12.715-0.46927 4.6145-0.06935 9.7501-0.17879 11.412-0.24314 1.881-0.0728 3.8687-0.07356 5.2633-0.0022 1.2324 0.06318 3.8589 0.11254 5.8365 0.10974 4.1415-0.0054 10.167 0.16732 13.862 0.39843 1.4172 0.08864 4.7271 0.15633 7.438 0.15207l4.8845-0.0076-0.0868 0.68645c-0.0477 0.37755-0.0896 3.9909-0.093 8.0296-6e-3 6.1665-0.0337 7.5607-0.17822 8.7007-0.19617 1.5485-0.34163 4.7778-0.34277 7.6098l-7.3e-4 1.9327-0.17581 1.2563c-0.20062 0.03923-1.9859-7.6e-4 -3.7944 0-2.3915 9.86e-4 -3.7944 0-3.4591-0.96466-0.0678 0.0803-0.15928 0.10306-0.20323 0.0505-0.12464-0.14908-0.0268-6.2098 0.18039-11.18 0.16356-3.9231 0.16852-4.5407 0.0383-4.7844-0.11953-0.22378-0.18875-0.25485-0.3459-0.15526-0.11322 0.07173-1.5141 0.14874-3.3055 0.18167-3.0497 0.05612-4.0277-0.0086-6.4963-0.42757-2.7883-0.47357-5.4037-0.69402-13.132-1.1069-8.5583-0.4572-16.204-0.43479-21.053 0.06166-0.94583 0.09688-2.4701 0.23324-3.3873 0.3031-0.91716 0.06989-2.6693 0.30384-3.8935 0.51994l-2.2259 0.3929-0.1874-0.29419c-0.15364-0.2412-0.21529-0.26678-0.34222-0.14204-0.12342 0.12129-0.16876 0.6707-0.22356 2.709-0.03781 1.4063-0.13837 3.3066-0.22347 4.223-0.13097 1.4103-0.13686 2.3104-0.03839 5.8622 0.06399 2.3078 0.10082 4.5571 0.08186 4.9983l-0.0345 0.8022-1.0422 0.14404c-0.57323 0.07921-1.6693 0.20537-2.4358 0.28034-2.2431 0.21939-5.6645 0.72592-5.7732 0.8547-0.18096 0.21422-0.51359 0.0083-0.06878 0.0083 3.2436 0.15783 6.4691-1.4992 9.3201-1.2874 0.04358 0.05158 0.15743 2.2482 0.22251 3.9904s0.1237 3.1752 0.13028 3.1844c0.0066 0.0098 0.16677 0.10381 0.35599 0.21011 0.30766 0.17287 0.45919 0.17466 1.4331 0.0169 0.59897-0.09699 1.8863-0.23058 2.8608-0.29681 0.97449-0.0662 3.0381-0.21429 4.5858-0.32904 2.5112-0.18618 3.4533-0.19316 8.7548-0.0649 3.2674 0.079 7.6526 0.14369 9.7449 0.14366 2.2808-3.3e-5 4.7432 0.07433 6.1492 0.18579 5.746 0.45536 9.7505 0.64603 15.853 0.7549l4.0238 0.07174 0.17124-0.28949c0.21069-0.35619 0.23671-1.8092 0.0382-2.1307-0.10695-0.17321-0.1083-0.4383-8e-3 -1.3503 0.0694-0.62413 0.12927-2.0372 0.13309-3.1403l8e-3 -2.0055h7.5889l0.0106 6.942c0.0231 15.115 0.0705 22.178 0.15676 23.387l0.0902 1.265-0.7184-0.0086c-0.39513-0.0054-1.375-0.16462-2.1775-0.35472z"
                  fill="#5fd38d" stroke-width=".49245"/>
        </g>
        <path d="m64.54 32.608s31.794-1.59 40.605-0.24877c10.91 1.6607 21.411 2.2697 18.025 13.05-1.1605 3.6942-17.527 22.513-23.177 29.289-8.1252 9.7463-6.3679 14.599-6.3679 14.599l-27.478 0.75317-1.0634-21.516z"
              fill="#0a0a0a" opacity=".149"/>
        <path d="m74.34 68.426c-0.08076-0.70647-0.13523-3.0828-0.2934-9.9154-0.32249-4.3945 0.04464-9.237 0.17649-13.385 0.07225-2.3392 0.08749-2.4684 0.3025-2.5657 11.89-2.7639 38.562-1.9668 55.037 0.30523 0.21119 0.12284 0.21011 0.32556-0.0334 6.2934-0.17118 4.1952-0.35081 12.9-0.28471 13.799 0.0356 0.4843 0.0501 5.1213-0.0385 5.8664-18.23 0.08289-36.682 1.283-54.866-0.39771z"
              stroke="#737373" stroke-width="1.267"/>
        <circle class="classBot_eye" cx="83.624" cy="54.523" r="5" fill="#fff"/>
        <circle class="classBot_eye" cx="119" cy="55.059" r="5" fill="#fff"/>
        <g fill="#00aad4">
            <g stroke-width="0">
                <rect x="73.846" y="70.05" width="2.9855" height="6.332"/>
                <rect x="78.597" y="70.649" width="2.9855" height="6.332"/>
                <rect x="83.4" y="70.763" width="2.9855" height="6.332"/>
                <rect x="88.152" y="70.826" width="2.9855" height="6.332"/>
                <rect x="92.933" y="70.779" width="2.9855" height="6.332"/>
                <rect x="97.684" y="70.842" width="2.9855" height="6.332"/>
                <rect x="102.49" y="70.956" width="2.9855" height="6.332"/>
                <rect x="107.24" y="71.019" width="2.9855" height="6.332"/>
                <rect x="112.15" y="70.988" width="2.9855" height="6.332"/>
                <rect x="116.9" y="71.051" width="2.9855" height="6.332"/>
                <rect x="121.7" y="71.165" width="2.9855" height="6.332"/>
                <rect x="126.46" y="70.692" width="2.9855" height="6.332"/>
            </g>
        </g>
        <path d="m115.65 80.213c0.57496-0.33401 1.394-0.87026 2.4806-0.52044 1.1385 0.36653 1.4337 0.646 1.7912 1.3068 0.42051 0.77744 0.41778 1.8021 0.0851 2.6524-2.5887 5.9205-7.7586-1.1797-4.357-3.4388z"
              fill="#f55" stroke="url(#b)" stroke-width=".1"/>
        <path d="m123.55 80.343c0.57497-0.33401 1.394-0.87026 2.4806-0.52044 1.1385 0.36653 1.4337 0.64599 1.7912 1.3068 0.42053 0.77746 0.41779 1.8021 0.0851 2.6524-2.5887 5.9205-7.7586-1.1797-4.357-3.4388z"
              fill="#f55" stroke="url(#a)" stroke-width=".1"/>
        <g stroke-width="0">
            <path d="m66.114 60.646c0.05947-0.03455 0.14418-0.09 0.25656-0.05383 0.11775 0.03791 0.14828 0.06681 0.18526 0.13516 0.0435 0.0804 0.04321 0.18638 0.0088 0.27433-0.26774 0.61233-0.80244-0.12201-0.45062-0.35566z"/>
            <path d="m67.937 60.386c0.05947-0.03455 0.14418-0.09001 0.25656-0.05383 0.11775 0.03791 0.14829 0.06682 0.18526 0.13516 0.04349 0.0804 0.04321 0.18638 0.0088 0.27433-0.26774 0.61233-0.80244-0.12201-0.45062-0.35566z"/>
            <path d="m69.699 60.114c0.05947-0.03455 0.14418-0.09001 0.25656-0.05383 0.11775 0.03791 0.14828 0.06682 0.18526 0.13516 0.04349 0.0804 0.04321 0.18638 0.0088 0.27433-0.26774 0.61233-0.80244-0.12201-0.45062-0.35566z"/>
            <path d="m71.619 59.806c0.05947-0.03454 0.14418-0.09 0.25656-0.05383 0.11775 0.0379 0.14829 0.06681 0.18526 0.13516 0.0435 0.08041 0.04321 0.18638 0.0088 0.27433-0.26774 0.61233-0.80244-0.12201-0.45062-0.35566z"/>
            <path d="m66.208 63.28c0.05947-0.03455 0.14418-0.09001 0.25656-0.05383 0.11775 0.0379 0.14828 0.06682 0.18526 0.13516 0.04349 0.0804 0.04321 0.18638 0.0088 0.27433-0.26774 0.61233-0.80244-0.12201-0.45062-0.35566z"/>
            <path d="m68.03 63.02c0.05947-0.03454 0.14418-0.09001 0.25656-0.05383 0.11775 0.0379 0.14828 0.06681 0.18526 0.13516 0.04349 0.08041 0.04321 0.18638 0.0088 0.27433-0.26774 0.61233-0.80244-0.12201-0.45062-0.35566z"/>
            <path d="m69.792 62.748c0.05947-0.03455 0.14418-0.09001 0.25656-0.05383 0.11775 0.0379 0.14828 0.06681 0.18526 0.13516 0.04349 0.08041 0.04321 0.18638 0.0088 0.27433-0.26774 0.61233-0.80244-0.12201-0.45062-0.35566z"/>
            <path d="m71.712 62.44c0.05947-0.03455 0.14418-0.09001 0.25656-0.05383 0.11775 0.0379 0.14828 0.06681 0.18525 0.13516 0.04349 0.08041 0.04321 0.18639 0.0088 0.27433-0.26774 0.61233-0.80244-0.12201-0.45062-0.35566z"/>
            <path d="m130.19 60.714c0.0631-0.02666 0.15371-0.07085 0.26096-0.02057 0.11239 0.05269 0.13927 0.08529 0.1679 0.15786 0.0337 0.08537 0.0209 0.19051-0.0237 0.27337-0.338 0.57339-0.78193-0.22385-0.40519-0.41067z"/>
            <path d="m132.03 60.689c0.0631-0.02667 0.1537-0.07086 0.26096-0.02057 0.11239 0.05269 0.13927 0.08529 0.16789 0.15786 0.0336 0.08537 0.0209 0.19051-0.0237 0.27337-0.33799 0.57339-0.78194-0.22385-0.40519-0.41067z"/>
            <path d="m133.81 60.645c0.0631-0.02667 0.15371-0.07085 0.26097-0.02057 0.11238 0.05269 0.13926 0.0853 0.16789 0.15786 0.0337 0.08537 0.0209 0.19051-0.0237 0.27337-0.338 0.57339-0.78195-0.22385-0.40521-0.41067z"/>
            <path d="m135.75 60.585c0.0631-0.02667 0.1537-0.07085 0.26095-0.02057 0.1124 0.05269 0.13928 0.08529 0.1679 0.15786 0.0336 0.08535 0.0209 0.19051-0.0237 0.27337-0.338 0.57339-0.78194-0.22385-0.4052-0.41067z"/>
            <path d="m130.18 58.641c0.0631-0.02666 0.15371-0.07085 0.26095-0.02057 0.1124 0.05269 0.13928 0.0853 0.1679 0.15786 0.0337 0.08537 0.0209 0.19051-0.0237 0.27337-0.338 0.57339-0.78194-0.22385-0.40519-0.41067z"/>
            <path d="m132.02 58.617c0.0631-0.02667 0.15371-0.07086 0.26097-0.02057 0.11238 0.05269 0.13928 0.0853 0.16788 0.15786 0.0336 0.08537 0.0209 0.19051-0.0237 0.27337-0.33801 0.57339-0.78195-0.22385-0.40521-0.41067z"/>
            <path d="m133.8 58.573c0.0631-0.02667 0.15371-0.07086 0.26098-0.02057 0.11237 0.05269 0.13926 0.08529 0.16788 0.15786 0.0337 0.08539 0.0209 0.19051-0.0237 0.27337-0.33801 0.57339-0.78195-0.22385-0.40522-0.41067z"/>
            <path d="m135.74 58.513c0.0631-0.02667 0.1537-0.07085 0.26096-0.02057 0.11239 0.05269 0.13929 0.0853 0.1679 0.15786 0.0336 0.08535 0.0209 0.19051-0.0237 0.27337-0.33802 0.57339-0.78195-0.22385-0.40522-0.41067z"/>
            <path d="m88.497 19.025c-0.50924-0.15227-1.5258-1.0844-1.7746-1.561-0.44075-0.84446-0.68939-1.5893 0.38774-2.2691 0.57134-0.36059 1.3846-0.91625 2.475-0.91625 1.1425 0 1.4408 0.1281 1.8054 0.50721 0.42899 0.446 0.43739 1.1584 0.11395 1.8234-0.46044 1.0511-2.0904 2.658-3.0075 2.4157z"/>
        </g>
        <path d="m107.72 80.17c0.57498-0.334 1.394-0.87026 2.4806-0.52043 1.1385 0.36652 1.4337 0.64599 1.7912 1.3068 0.42054 0.77746 0.4178 1.8021 0.0851 2.6524-2.5887 5.9205-7.7586-1.1797-4.357-3.4388z"
              fill="#f55" stroke="url(#c)" stroke-width=".1"/>
        <rect transform="rotate(-3.1702)" x="74.104" y="32.292" width="8.9418" height="3.2303" fill="#0a0a0a"
              opacity=".149"/>
        <rect transform="matrix(.99631 -.085791 .035603 .99937 0 0)" x="78.147" y="31.219" width="5.1837"
              height="2.9025" fill="#0a0a0a" opacity=".149"/>
        <path d="m88.641 18.834c-0.48268-0.1448-1.4462-1.0312-1.682-1.4844-0.41776-0.80303-0.65343-1.5113 0.36752-2.1578 0.54154-0.3429 1.3124-0.8713 2.3459-0.8713 1.0829 0 1.3657 0.12182 1.7112 0.48232 0.40662 0.42412 0.41458 1.1016 0.10801 1.7339-0.43642 0.99953-1.9814 2.5276-2.8506 2.2972z"
              fill="#f55" stroke-width="0"/>
    </g>
    <rect x="31.285" y="58.735" width="13.529" height="3.1715" fill="#fff" stroke-width="0"/>
    <rect x="82.055" y="59.476" width="13.529" height="3.1715" fill="#fff" stroke-width="0"/>
    <script>//<![CDATA[
        const eyes = document.getElementsByClassName("classBot_eye");
        setInterval(function () {
            const timer = Math.round(Math.random() * 6000);
            setTimeout(function () {
                let i;
                for (i = 0; i < eyes.length; i++) {
                  eyeSize = parseFloat(eyes[i].getAttribute("r"))
                  eyes[i].setAttribute("r", (eyeSize !== 1 ? "1" : "5"));
                };
                setTimeout(function () {
                    let i;
                    for (i = 0; i < eyes.length; i++) {
                      eyeSize = parseFloat(eyes[i].getAttribute("r"))
                      eyes[i].setAttribute("r", (eyeSize !== 1 ? "1" : "5"));
                    };
                }, 200);
            }, timer)
        }, 5000)
    //]]></script>
</svg>
