<?xml version="1.0" encoding="UTF-8" standalone="no"?>
<svg
   id="svg971"
   width="250"
   height="250"
   aria-hidden="true"
   aria-label="ClassBot logo"
   role="img"
   version="1.1"
   viewBox="0 0 250 250"
   sodipodi:docname="favicon.svg"
   inkscape:version="1.4.2 (ebf0e940d0, 2025-05-08)"
   xmlns:inkscape="http://www.inkscape.org/namespaces/inkscape"
   xmlns:sodipodi="http://sodipodi.sourceforge.net/DTD/sodipodi-0.dtd"
   xmlns="http://www.w3.org/2000/svg"
   xmlns:svg="http://www.w3.org/2000/svg">
  <sodipodi:namedview
     id="namedview1"
     pagecolor="#ffffff"
     bordercolor="#000000"
     borderopacity="0.25"
     inkscape:showpageshadow="2"
     inkscape:pageopacity="0.0"
     inkscape:pagecheckerboard="0"
     inkscape:deskcolor="#d1d1d1"
     inkscape:zoom="2.2479999"
     inkscape:cx="26.467972"
     inkscape:cy="233.09609"
     inkscape:window-width="3440"
     inkscape:window-height="1335"
     inkscape:window-x="0"
     inkscape:window-y="0"
     inkscape:window-maximized="1"
     inkscape:current-layer="svg971" />
  <defs
     id="defs827">
    <linearGradient
       id="c"
       x1="296.565"
       x2="575.921"
       y1="368.237"
       y2="652.176"
       gradientTransform="matrix(0.66137023,0,0,0.66137023,-194.25422,-250.76047)"
       gradientUnits="userSpaceOnUse">
      <stop
         id="stop818"
         offset=".231"
         stop-color="#fff"
         stop-opacity="0" />
      <stop
         id="stop820"
         offset="1"
         stop-color="#fff" />
    </linearGradient>
    <linearGradient
       id="d"
       x1="124.94"
       x2="149.521"
       y1="555.033"
       y2="555.033"
       gradientTransform="matrix(0.99442707,0,0,0.99442707,-124.05001,-419.04344)"
       gradientUnits="userSpaceOnUse" />
    <clipPath
       id="b">
      <path
         d="m 370.546,440.135 c -28.437,9.049 -48.735,37.394 -49.8,71.862 -1.6,51.49 6.678,116.225 36.806,140.982 28.039,23.041 73.35,18.567 107.133,18.171 45.78,-0.536 96.094,-2.258 138.282,-22.3 61.856,-29.39 40.833,-126.114 16.733,-176.364 -15.951,-33.251 -41.934,-44.675 -79.437,-49.609 -55.507,-7.301 -128.61,4.179 -169.717,17.258 z"
         style="fill:none"
         id="path824" />
    </clipPath>
  </defs>
  <rect
     style="fill:#5dd18c;fill-opacity:1"
     id="rect1"
     width="250"
     height="250"
     x="0"
     y="0"
     rx="45" />
  <path
     d="m 91.080306,195.32564 c -17.110249,0 -36.43974,-1.50777 -50.110997,-12.73951 C 31.584087,174.87808 24.672226,161.15597 20.437014,141.7926 17.04885,126.34255 15.524173,107.30106 16.100164,88.191786 a 56.616274,56.616274 0 0 1 9.94427,-30.832341 C 32.143134,48.617995 40.44414,42.40071 50.032657,39.351349 68.870865,33.354298 103.10829,26.35773 137.66761,26.35773 a 194.98903,194.98903 0 0 1 25.24184,1.52468 c 13.78984,1.812668 24.00516,4.84507 32.13677,9.554634 9.28357,5.370233 16.31402,13.247721 21.51485,24.055974 12.70563,26.512418 21.32852,65.137522 11.94329,91.683812 -4.40462,12.45153 -12.36682,21.49794 -23.71718,26.86819 -27.5119,13.07831 -59.24209,14.50134 -92.03956,14.891 -2.72746,0.0351 -5.53964,0.10169 -8.52123,0.16912 -4.252149,0.11866 -8.656759,0.23756 -13.146084,0.23756 z"
     style="fill:#727272;stroke-width:0.661405"
     id="path859" />
  <path
     d="m 91.436062,197.07051 c -17.872587,0 -38.116886,-1.5924 -52.838469,-13.68818 C 28.450033,175.04748 21.046888,160.51221 16.608385,140.20015 13.135516,124.41129 11.560012,104.99709 12.169886,85.549008 A 60.885365,60.885365 0 0 1 22.876498,52.378853 50.720866,50.720866 0 0 1 49.100909,32.744422 C 68.227113,26.645733 102.97277,19.564437 138.0403,19.564437 a 199.37671,199.37671 0 0 1 25.80089,1.541623 c 14.36582,1.897379 25.08938,5.099205 33.72921,10.113698 10.04591,5.810702 17.65235,14.298066 23.20895,25.902527 13.1122,27.308627 21.93838,67.272075 12.12963,94.987275 -4.79425,13.55265 -13.50184,23.42917 -25.90255,29.30764 -28.2912,13.45103 -60.54653,14.90799 -93.85223,15.29758 -2.67664,0.0351 -5.438,0.11867 -8.36876,0.16948 h -0.0677 c -4.28604,0.10135 -8.724539,0.18668 -13.264678,0.18668 z"
     style="opacity:0.71;fill:#5fd38d;fill-opacity:1;stroke-width:0.661405"
     id="path861" />
  <path
     d="m 91.757936,195.32564 c -17.279651,0 -36.795496,-1.52468 -50.568395,-12.84114 C 31.719618,174.69168 24.75693,160.85104 20.4709,141.31825 17.065791,125.73268 15.507229,106.52177 16.100164,87.243096 A 57.107562,57.107562 0 0 1 26.129139,56.139727 C 32.278661,47.330491 40.664372,41.062379 50.337594,37.97915 69.328268,31.931271 103.87063,24.866934 138.75182,24.866934 a 196.76782,196.76782 0 0 1 25.44513,1.524664 c 13.92537,1.846569 24.2254,4.912855 32.4417,9.656287 9.35134,5.421077 16.4326,13.349376 21.68427,24.259283 12.82422,26.749579 21.51486,65.730452 12.04493,92.496962 -4.43848,12.57011 -12.48539,21.68427 -23.88658,27.10533 -27.78296,13.19695 -59.78421,14.6369 -92.8866,15.02656 -2.74441,0.0351 -5.59046,0.10169 -8.57206,0.16912 a 480.10329,480.10329 0 0 1 -13.281615,0.23756 z"
     style="fill:#00aad4;fill-opacity:1;stroke-width:0.661405"
     id="path863" />
  <circle
     cx="128.8188"
     cy="208.7888"
     r="9.2441931"
     style="fill:#d94a44;fill-opacity:1;stroke-width:0.661416"
     id="circle873" />
  <circle
     cx="128.8188"
     cy="208.90709"
     r="9.1258574"
     style="fill:#424242;stroke-width:0.661416"
     id="circle875" />
  <path
     d="m 128.87051,217.85796 a 9.1606621,9.1606621 0 0 1 -6.84763,-15.24954 9.1845283,9.1845283 0 1 0 14.84481,10.55286 9.1586732,9.1586732 0 0 1 -7.99718,4.69568 z"
     style="fill:#ce3a3a;fill-opacity:1;stroke-width:0.661416"
     id="path877" />
  <circle
     cx="128.75914"
     cy="208.84846"
     r="8.3800373"
     style="fill:#d94a44;fill-opacity:1;stroke-width:0.661416"
     id="circle879" />
  <path
     fill="#00aad4"
     d="m 51.472629,149.12797 h 8.097715 v 21.73508 h -8.097715 z m 12.875037,2.06678 h 8.080773 v 21.71816 h -8.080773 z m 12.993616,0.38964 h 8.097722 v 21.71815 h -8.097722 z m 12.875036,0.22025 h 8.080793 v 21.71816 h -8.063849 z m 12.942802,-0.1694 h 8.09772 v 21.7351 h -8.09772 z m 12.87504,0.22025 h 8.08076 v 21.71816 h -8.08076 z m 13.01054,0.38964 h 8.0808 v 21.71814 h -8.0808 z m 12.87504,0.22025 h 8.06384 v 21.71818 h -8.08076 z m 13.28162,-0.1185 h 8.08078 V 174.082 h -8.08078 z m 12.87504,0.22025 h 8.08078 v 21.73509 h -8.09772 z m 12.99362,0.38965 h 8.08078 v 21.7351 h -8.08078 z m 12.87504,-1.62632 h 8.09772 v 21.73508 h -8.09772 z"
     style="stroke-width:3.04833"
     id="path887" />
  <g
     clip-path="url(#b)"
     style="fill:#1a1a1a"
     id="g903"
     transform="matrix(0.66137025,0,0,0.66137025,-194.25422,-250.76047)">
    <path
       d="M 315.535,405.023 H 365.4 v 288.308 h -49.865 z"
       style="fill:#1a1a1a"
       id="path889" />
    <path
       d="m 364.543,405.023 h 49.865 v 288.308 h -49.865 z"
       style="fill:#1a1a1a"
       id="path891" />
    <path
       d="m 413.552,405.023 h 49.865 v 288.308 h -49.865 z"
       style="fill:#1a1a1a"
       id="path893" />
    <path
       d="m 462.56,405.023 h 49.865 V 693.331 H 462.56 Z"
       style="fill:#1a1a1a"
       id="path895" />
    <path
       d="m 511.568,405.023 h 49.865 v 288.308 h -49.865 z"
       style="fill:#1a1a1a"
       id="path897" />
    <path
       d="m 560.577,405.023 h 49.865 v 288.308 h -49.865 z"
       style="fill:#1a1a1a"
       id="path899" />
    <path
       d="M 609.585,405.023 H 659.45 V 693.331 H 609.585 Z"
       style="fill:#1a1a1a"
       id="path901" />
  </g>
  <path
     d="m 97.856641,190.29421 c -14.907943,0 -31.713248,-1.25362 -43.148315,-10.67275 C 37.648905,165.6114 32.583597,127.54535 33.532282,96.611376 34.142153,77.434344 45.390867,61.103376 61.518544,55.953361 79.848528,50.125717 111.42625,44.247262 140.66612,44.247262 a 174.71084,174.71084 0 0 1 22.58214,1.355257 c 20.60006,2.71053 36.25338,8.572059 45.74026,28.308144 a 155.66935,155.66935 0 0 1 12.46846,39.387447 c 2.76136,16.14461 2.20231,30.44268 -1.67714,41.35257 -3.62534,10.24922 -10.16451,17.6693 -19.39726,22.07392 -24.46257,11.60449 -53.0587,12.87502 -82.67128,13.21385 -2.54114,0.0509 -5.15003,0.0845 -7.89443,0.16947 -3.89639,0.10136 -7.91137,0.16948 -11.977169,0.16948 z"
     style="opacity:0.270758;fill:url(#c);stroke-width:0.661405"
     id="path905" />
  <path
     d="M 25.756438,95.035886 C 26.467953,72.233501 39.885097,53.496933 58.706365,47.499898 85.896405,38.86007 134.24555,31.270569 170.95634,36.098713 185.4577,37.996092 197.35016,41.384251 206.83703,48.24528 196.36759,36.386716 181.934,31.406091 163.07885,28.932737 126.36806,24.104594 78.018919,31.694095 50.828877,40.350849 32.024547,46.330974 18.590463,65.084485 17.895892,87.88684 c -1.067274,34.0511 4.404615,76.86056 24.343977,93.24239 q 1.389148,1.15193 2.879943,2.15148 C 29.26319,164.30697 24.790809,126.05455 25.756438,95.035886 Z"
     style="fill:#000000;stroke-width:0.661405"
     id="path907" />
  <path
     d="m 50.828877,40.350849 c -18.80433,5.980125 -32.238414,24.733636 -32.932985,47.535991 -1.067274,34.0511 4.404615,76.86056 24.343977,93.24239 18.533277,15.24674 48.501617,12.28207 70.846561,12.02799 30.29022,-0.37272 63.56203,-1.50774 91.48053,-14.75548 C 245.46214,158.95366 231.5537,94.985046 215.61238,61.747137 205.07519,39.757932 187.88024,32.202316 163.09579,28.932737 126.36806,24.104594 78.018919,31.694095 50.828877,40.350849 Z"
     style="fill:none;stroke-width:0.661405"
     id="path909" />
  <g
     id="g923"
     transform="matrix(0.99442706,0,0,0.99442706,-129.08282,-422.42195)">
    <circle
       cx="204.912"
       cy="544.08099"
       r="19.080999"
       style="opacity:1;fill:#ffffff;fill-opacity:1;stroke-width:0.763222"
       id="circle919" />
    <circle
       cx="308.32001"
       cy="544.08099"
       r="19.080999"
       style="opacity:1;fill:#ffffff;fill-opacity:1;stroke-width:0.763222"
       id="circle921" />
  </g>
  <circle
     cx="59.782551"
     cy="208.5273"
     r="6.1932917"
     style="fill:#919191;stroke-width:0.661416"
     id="circle929" />
  <circle
     cx="59.752716"
     cy="208.5571"
     r="6.0729661"
     style="fill:#424242;stroke-width:0.661416"
     id="circle931" />
  <circle
     cx="59.693054"
     cy="208.61676"
     r="5.6553063"
     style="fill:#0192b5;fill-opacity:1;stroke-width:0.661416"
     id="circle933" />
  <circle
     cx="105.23483"
     cy="208.52824"
     r="6.1932917"
     style="fill:#919191;stroke-width:0.661416"
     id="circle937" />
  <circle
     cx="105.20499"
     cy="208.55714"
     r="6.0729661"
     style="fill:#424242;stroke-width:0.661416"
     id="circle939" />
  <circle
     cx="105.14533"
     cy="208.61681"
     r="5.6553063"
     style="fill:#0192b5;fill-opacity:1;stroke-width:0.661416"
     id="circle941" />
  <circle
     cx="89.848061"
     cy="208.52824"
     r="6.1932917"
     style="fill:#919191;stroke-width:0.661416"
     id="circle945" />
  <circle
     cx="89.81723"
     cy="208.55714"
     r="6.0729661"
     style="fill:#424242;stroke-width:0.661416"
     id="circle947" />
  <circle
     cx="89.757568"
     cy="208.61681"
     r="5.6553063"
     style="fill:#0192b5;fill-opacity:1;stroke-width:0.661416"
     id="circle949" />
  <circle
     cx="74.818275"
     cy="208.52824"
     r="6.1932917"
     style="fill:#919191;stroke-width:0.661416"
     id="circle953" />
  <circle
     cx="74.788445"
     cy="208.55714"
     r="6.0729661"
     style="fill:#424242;stroke-width:0.661416"
     id="circle955" />
  <circle
     cx="74.728783"
     cy="208.61681"
     r="5.6553063"
     style="fill:#0192b5;fill-opacity:1;stroke-width:0.661416"
     id="circle957" />
  <ellipse
     id="ellipse969"
     cx="132.4254"
     cy="142.49852"
     rx="9.809268"
     ry="13.400785"
     style="opacity:0.469314;fill:#ffffff;stroke-width:0.494561"
     transform="matrix(0.91162695,-0.41101862,0.46490132,0.8853625,0,0)" />
</svg>
