<?xml version="1.0" standalone="no"?>
<!DOCTYPE svg PUBLIC "-//W3C//DTD SVG 20010904//EN"
 "http://www.w3.org/TR/2001/REC-SVG-20010904/DTD/svg10.dtd">
<svg version="1.0" xmlns="http://www.w3.org/2000/svg"
 width="700.000000pt" height="700.000000pt" viewBox="0 0 700.000000 700.000000"
 preserveAspectRatio="xMidYMid meet">
<metadata>
Created by potrace 1.14, written by Peter Selinger 2001-2017
</metadata>
<g transform="translate(0.000000,700.000000) scale(0.100000,-0.100000)"
fill="#000000" stroke="none">
<path d="M2534 6842 c-67 -24 -147 -76 -164 -106 -12 -23 -10 -70 5 -121 5
-16 -8 -32 -64 -77 -58 -47 -76 -70 -105 -130 -39 -82 -54 -134 -64 -228 l-7
-65 -192 3 -191 2 -6 -97 c-4 -54 -9 -121 -12 -150 l-5 -52 -47 -6 c-26 -3
-85 -12 -132 -20 -122 -21 -123 -23 -118 -198 3 -132 3 -138 -17 -142 -42 -9
-671 -45 -782 -45 -66 0 -64 23 -58 -543 3 -282 7 -601 10 -709 l5 -198 -102
-1 c-57 0 -125 -6 -153 -13 l-50 -11 -7 -120 c-15 -251 7 -1194 33 -1410 18
-150 18 -150 208 -161 l108 -7 7 -179 c4 -98 12 -218 17 -266 5 -48 16 -229
24 -402 19 -413 35 -633 45 -644 5 -4 150 -1 331 8 l322 16 66 -62 c316 -296
972 -508 1756 -568 181 -14 652 -14 831 0 714 56 1332 239 1746 516 l80 53 86
-15 c48 -8 149 -28 224 -44 80 -18 166 -30 208 -30 l72 0 -6 42 c-3 24 -9 421
-12 884 l-7 841 117 7 c64 4 123 9 130 12 8 3 17 29 21 62 3 31 15 109 25 172
41 247 50 397 51 834 1 232 2 477 3 546 2 183 -15 203 -189 222 l-108 12 7
570 c3 314 9 587 12 607 l6 36 -518 7 c-286 3 -580 10 -654 16 -129 9 -1115
30 -1570 33 -118 1 -355 -2 -526 -6 l-312 -8 -4 131 c-4 123 -5 132 -29 156
-19 19 -40 26 -90 32 l-64 7 -5 102 c-7 148 1 142 -241 156 -107 5 -195 11
-197 12 -1 1 4 45 12 98 17 115 39 163 113 246 l55 61 33 -20 c45 -28 84 -25
138 11 79 52 145 141 161 215 9 40 -14 97 -47 119 -39 25 -152 29 -213 7z
m-324 -2832 c130 -25 236 -107 293 -228 29 -61 32 -76 32 -163 0 -90 -2 -99
-38 -171 -123 -249 -440 -302 -636 -107 -155 156 -153 405 5 562 94 93 217
131 344 107z m2906 -59 c274 -97 354 -449 148 -655 -27 -28 -77 -63 -114 -80
-59 -28 -74 -31 -165 -31 -91 0 -106 3 -165 31 -183 87 -274 297 -211 486 38
114 129 207 243 248 72 26 190 26 264 1z"/>
</g>
</svg>
