<?xml version="1.0" encoding="UTF-8" standalone="no"?>
<svg
   viewBox="0 0 121.9 110.6"
   enable-background="new 0 0 121.9 110.6"
   version="1.1"
   id="svg48"
   sodipodi:docname="modele-bohr.svg"
   inkscape:version="1.2.1 (0f2f062aeb, 2022-09-21, custom)"
   xmlns:inkscape="http://www.inkscape.org/namespaces/inkscape"
   xmlns:sodipodi="http://sodipodi.sourceforge.net/DTD/sodipodi-0.dtd"
   xmlns="http://www.w3.org/2000/svg"
   xmlns:svg="http://www.w3.org/2000/svg">
  <defs
     id="defs52" />
  <sodipodi:namedview
     id="namedview50"
     pagecolor="#505050"
     bordercolor="#eeeeee"
     borderopacity="1"
     inkscape:showpageshadow="0"
     inkscape:pageopacity="0"
     inkscape:pagecheckerboard="0"
     inkscape:deskcolor="#505050"
     showgrid="false"
     inkscape:zoom="7.1247741"
     inkscape:cx="65.265227"
     inkscape:cy="55.510532"
     inkscape:window-width="1846"
     inkscape:window-height="1016"
     inkscape:window-x="0"
     inkscape:window-y="0"
     inkscape:window-maximized="1"
     inkscape:current-layer="svg48" />
  <style
     type="text/css"
     id="style18">.st0{fill:#FC9E00;} .st1{fill:#2E2E2C;} .st2{fill:#0092DF;} .st3{fill:#97C400;} .st4{fill:#66A900;} .st5{fill:#3C3C3B;}</style>
  <circle
     cx="62.2"
     cy="55.8"
     r="9.6"
     class="st0"
     id="circle20"
     style="fill:#ff2a2a" />
  <path
     d="M62.2 85.4c-16.4 0-29.7-13.3-29.7-29.7S45.8 26 62.2 26s29.7 13.3 29.7 29.7c-.1 16.4-13.4 29.7-29.7 29.7zm0-58.6c-16 0-29 13-29 29s13 29 29 29 29-13 29-29-13.1-29-29-29z"
     class="st2"
     id="path24" />
  <path
     d="M62.2 104.3c-26.8 0-48.6-21.8-48.6-48.6C13.6 29 35.4 7.2 62.2 7.2s48.6 21.8 48.6 48.6c-.1 26.8-21.9 48.5-48.6 48.5zm0-96.4c-26.4 0-47.9 21.5-47.9 47.9s21.5 47.9 47.9 47.9S110 82.2 110 55.8 88.6 7.9 62.2 7.9z"
     class="st3"
     id="path26"
     style="fill:#0076b3;fill-opacity:1" />
  <path
     d="M62.2 108.9C32.8 108.9 9 85.1 9 55.8S32.8 2.6 62.2 2.6s53.2 23.9 53.2 53.2-23.9 53.1-53.2 53.1zm0-105.6c-29 0-52.5 23.5-52.5 52.5 0 28.9 23.5 52.5 52.5 52.5 28.9 0 52.5-23.5 52.5-52.5-.1-29-23.6-52.5-52.5-52.5z"
     class="st4"
     id="path28"
     style="fill:#0075b2;fill-opacity:1" />
  <circle
     cx="35.6"
     cy="67.9"
     r="3.3"
     class="st5"
     id="circle30"
     style="fill:#ffcc00;stroke:#cca300;stroke-opacity:1;stroke-width:0.2;stroke-dasharray:none;stroke-linejoin:round" />
  <circle
     cx="23"
     cy="91.9"
     r="3.3"
     class="st5"
     id="circle32"
     style="fill:#ffcc00;stroke:#cca300;stroke-opacity:1;stroke-width:0.2;stroke-dasharray:none;stroke-linejoin:round" />
  <circle
     cx="31.6"
     cy="18.4"
     r="3.3"
     class="st5"
     id="circle34"
     style="fill:#ffcc00;stroke:#cca300;stroke-opacity:1;stroke-width:0.2;stroke-dasharray:none;stroke-linejoin:round" />
  <circle
     cx="87.7"
     cy="41.7"
     r="3.3"
     class="st5"
     id="circle36"
     style="fill:#ffcc00;stroke:#cca300;stroke-opacity:1;stroke-width:0.2;stroke-dasharray:none;stroke-linejoin:round" />
  <circle
     cx="99.2"
     cy="18"
     r="3.3"
     class="st5"
     id="circle38"
     style="fill:#ffcc00;stroke:#cca300;stroke-opacity:1;stroke-width:0.2;stroke-dasharray:none;stroke-linejoin:round" />
  <circle
     cx="96.9"
     cy="88.4"
     r="3.3"
     class="st5"
     id="circle40"
     style="fill:#ffcc00;stroke:#cca300;stroke-opacity:1;stroke-width:0.2;stroke-dasharray:none;stroke-linejoin:round" />
  <text
     xml:space="preserve"
     style="font-size:5.6496px;fill:#0092df;fill-opacity:1;stroke-width:0.470801"
     x="49.504616"
     y="61.291008"
     id="text3284"
     transform="scale(1.0587487,0.94451122)"><tspan
       sodipodi:role="line"
       id="tspan3282"
       x="49.504616"
       y="61.291008"
       style="fill:#ffffff;stroke-width:0.470801">Noyau</tspan></text>
  <text
     xml:space="preserve"
     style="font-size:5.76901px;fill:#e5b700;fill-opacity:1;stroke:#cca300;stroke-width:0.138572;stroke-linejoin:round;stroke-dasharray:none;stroke-opacity:1"
     x="35.036564"
     y="24.521254"
     id="text3440"
     transform="scale(0.99192226,1.0081435)"><tspan
       sodipodi:role="line"
       id="tspan3438"
       x="35.036564"
       y="24.521254"
       style="fill:#e5b700;fill-opacity:1;stroke:#cca300;stroke-width:0.138572;stroke-linejoin:round;stroke-dasharray:none;stroke-opacity:1">cortège électronique</tspan></text>
</svg>
