<svg xmlns="http://www.w3.org/2000/svg" xmlns:svg="http://www.w3.org/2000/svg" id="svg48" enable-background="new 0 0 121.9 110.6" version="1.1" viewBox="0 0 121.9 110.6"><style id="style18" type="text/css">.st0{fill:#fc9e00}.st2{fill:#0092df}.st3{fill:#97c400}.st4{fill:#66a900}.st5{fill:#3c3c3b}</style><circle id="circle20" cx="62.2" cy="55.8" r="9.6" class="st0" style="fill:#ff2a2a"/><path id="path24" d="M62.2 85.4c-16.4 0-29.7-13.3-29.7-29.7S45.8 26 62.2 26s29.7 13.3 29.7 29.7c-.1 16.4-13.4 29.7-29.7 29.7zm0-58.6c-16 0-29 13-29 29s13 29 29 29 29-13 29-29-13.1-29-29-29z" class="st2"/><path id="path26" d="M62.2 104.3c-26.8 0-48.6-21.8-48.6-48.6C13.6 29 35.4 7.2 62.2 7.2s48.6 21.8 48.6 48.6c-.1 26.8-21.9 48.5-48.6 48.5zm0-96.4c-26.4 0-47.9 21.5-47.9 47.9s21.5 47.9 47.9 47.9S110 82.2 110 55.8 88.6 7.9 62.2 7.9z" class="st3" style="fill:#0076b3;fill-opacity:1"/><path id="path28" d="M62.2 108.9C32.8 108.9 9 85.1 9 55.8S32.8 2.6 62.2 2.6s53.2 23.9 53.2 53.2-23.9 53.1-53.2 53.1zm0-105.6c-29 0-52.5 23.5-52.5 52.5 0 28.9 23.5 52.5 52.5 52.5 28.9 0 52.5-23.5 52.5-52.5-.1-29-23.6-52.5-52.5-52.5z" class="st4" style="fill:#0075b2;fill-opacity:1"/><circle id="circle30" cx="35.6" cy="67.9" r="3.3" class="st5" style="fill:#fc0;stroke:#cca300;stroke-opacity:1;stroke-width:.2;stroke-dasharray:none;stroke-linejoin:round"/><circle id="circle32" cx="23" cy="91.9" r="3.3" class="st5" style="fill:#fc0;stroke:#cca300;stroke-opacity:1;stroke-width:.2;stroke-dasharray:none;stroke-linejoin:round"/><circle id="circle34" cx="31.6" cy="18.4" r="3.3" class="st5" style="fill:#fc0;stroke:#cca300;stroke-opacity:1;stroke-width:.2;stroke-dasharray:none;stroke-linejoin:round"/><circle id="circle36" cx="87.7" cy="41.7" r="3.3" class="st5" style="fill:#fc0;stroke:#cca300;stroke-opacity:1;stroke-width:.2;stroke-dasharray:none;stroke-linejoin:round"/><circle id="circle38" cx="99.2" cy="18" r="3.3" class="st5" style="fill:#fc0;stroke:#cca300;stroke-opacity:1;stroke-width:.2;stroke-dasharray:none;stroke-linejoin:round"/><circle id="circle40" cx="96.9" cy="88.4" r="3.3" class="st5" style="fill:#fc0;stroke:#cca300;stroke-opacity:1;stroke-width:.2;stroke-dasharray:none;stroke-linejoin:round"/><text xml:space="preserve" style="font-size:5.6496px;fill:#0092df;fill-opacity:1;stroke-width:.470801" id="text3284" x="49.505" y="61.291" transform="scale(1.0587487,0.94451122)"><tspan id="tspan3282" x="49.505" y="61.291" style="fill:#fff;stroke-width:.470801">Noyau</tspan></text><text xml:space="preserve" style="font-size:5.76901px;fill:#e5b700;fill-opacity:1;stroke:#cca300;stroke-width:.138572;stroke-linejoin:round;stroke-dasharray:none;stroke-opacity:1" id="text3440" x="35.037" y="24.521" transform="scale(0.99192226,1.0081435)"><tspan id="tspan3438" x="35.037" y="24.521" style="fill:#e5b700;fill-opacity:1;stroke:#cca300;stroke-width:.138572;stroke-linejoin:round;stroke-dasharray:none;stroke-opacity:1">cortège électronique</tspan></text></svg>